inDegrees=no
num_controls=7
num_derivatives=13
num_iterations=71
num_multipliers=7
num_parameters=0
num_slacks=7
num_states=26
objective=0.519764
objective_accelerations=0.000771
objective_balance=0.001365
objective_effort=0.007663
objective_height=0.488059
objective_ligament=0.021906
solver_duration=780.041644
status=Solve_Succeeded
success=true
DataType=double
version=3
OpenSimVersion=4.5
endheader
time	/jointset/ground_pelvis/pelvis_tilt/value	/jointset/ground_pelvis/pelvis_tx/value	/jointset/ground_pelvis/pelvis_ty/value	/jointset/hip_r/hip_flexion_r/value	/jointset/hip_r/hip_adduction_r/value	/jointset/hip_r/hip_rotation_r/value	/jointset/back/lumbar_extension/value	/jointset/patellofemoral_r/patellar_flexion_r/value	/jointset/knee_r/knee_flexion_r/value	/jointset/knee_r/knee_adduction_r/value	/jointset/knee_r/knee_rotation_r/value	/jointset/ankle_r/ankle_angle_r/value	/jointset/subtalar_r/subtalar_angle_r/value	/jointset/ground_pelvis/pelvis_tilt/speed	/jointset/ground_pelvis/pelvis_tx/speed	/jointset/ground_pelvis/pelvis_ty/speed	/jointset/hip_r/hip_flexion_r/speed	/jointset/hip_r/hip_adduction_r/speed	/jointset/hip_r/hip_rotation_r/speed	/jointset/back/lumbar_extension/speed	/jointset/patellofemoral_r/patellar_flexion_r/speed	/jointset/knee_r/knee_flexion_r/speed	/jointset/knee_r/knee_adduction_r/speed	/jointset/knee_r/knee_rotation_r/speed	/jointset/ankle_r/ankle_angle_r/speed	/jointset/subtalar_r/subtalar_angle_r/speed	/forceset/tau_hip_flexion_r	/forceset/tau_hip_adduction_r	/forceset/tau_hip_rotation_r	/forceset/tau_knee_flexion_r	/forceset/tau_ankle_angle_r	/forceset/tau_subtalar_angle_r	/forceset/tau_lumbar_extension	lambda_cid13_p0	lambda_cid14_p0	lambda_cid14_p1	lambda_cid14_p2	lambda_cid14_p3	lambda_cid14_p4	lambda_cid14_p5	/jointset/ground_pelvis/pelvis_tilt/accel	/jointset/ground_pelvis/pelvis_tx/accel	/jointset/ground_pelvis/pelvis_ty/accel	/jointset/hip_r/hip_flexion_r/accel	/jointset/hip_r/hip_adduction_r/accel	/jointset/hip_r/hip_rotation_r/accel	/jointset/back/lumbar_extension/accel	/jointset/patellofemoral_r/patellar_flexion_r/accel	/jointset/knee_r/knee_flexion_r/accel	/jointset/knee_r/knee_adduction_r/accel	/jointset/knee_r/knee_rotation_r/accel	/jointset/ankle_r/ankle_angle_r/accel	/jointset/subtalar_r/subtalar_angle_r/accel	gamma_cid13_p0	gamma_cid14_p0	gamma_cid14_p1	gamma_cid14_p2	gamma_cid14_p3	gamma_cid14_p4	gamma_cid14_p5
0	0.01037119898265887	0.1222145666116038	0.9367916927368743	0.1934211968871041	-0.08087734933502597	0.0006649688577533702	-0.2903787966825928	0.2311786273363305	0.2311786273363406	-0.1508367612583321	-0.1676458316690477	0.089344008118978	0.2456235708880712	0	0	0	0	0	0	0	0	0	0	0	0	0	0.02410670777565025	0.06184834469050086	0.04400442748374025	-0.163749491152988	0.08050650276606063	-0.04944317804985954	0.05771372686403771	-27.95244827614715	-26.02727241331495	-34.06269377113821	15.02731670419042	-2.911613620305335	-661.4202540890637	18.00566041765776	0.1338383643708354	-0.002329244511641417	0.001040010337219866	-0.06894344092856039	-0.009294856064689055	-0.06756196493147511	-0.4178075482052733	0.1301750183440602	0.130175018344077	0.002586933839759935	0.07116841833083201	0.0849374550282731	0.02730948520536264	-1.349509373818909e-11	-1.187047111230425e-10	6.91648033252643e-10	4.954474278562205e-11	-1.393257051882246e-11	-4.471988140068029e-10	2.605495747316404e-10
0.01	0.0103772698946426	0.1222151738518218	0.9367917854183341	0.1934170258033962	-0.08087798664230257	0.0006614519080349298	-0.2903978427292165	0.2311841351336369	0.2311841351337348	-0.1508362837340787	-0.1676422473987684	0.08934861468377017	0.2456248783487346	0.001155997187631738	0.0001938280536944445	2.279186179791253e-05	-0.00090996357618369	-0.0001447125936273853	-0.0007094076998290852	-0.003629848021058838	0.001004972098664794	0.001004972098662327	0.0001311227342010685	0.0007114871583866658	0.0009586396720984102	0.0002561753230544281	0.02508225804844668	0.06079482495792636	0.04473588177258697	-0.1671413813461255	0.08560538937083952	-0.04835662100406522	0.05745208834451755	-27.95247618530205	-24.31852478191158	-33.64894709718785	15.36951597485699	-4.69217340957083	-661.9373777518264	18.80401273228813	0.09775261054590186	0.04109582966032196	0.003537020118263557	-0.1133848501610452	-0.01964702865212915	-0.0735328515709775	-0.3086692336257887	0.07117020330658072	0.07117020330646349	0.02371774814475417	0.07033382664142715	0.1069261797955958	0.02397415236730671	1.998761768481602e-11	2.224703750570603e-11	3.69017771148116e-10	1.835938111899422e-11	-3.237282651747358e-11	-7.005030743768389e-11	2.045119893286722e-10
0.02	0.01039315522143027	0.122219890772448	0.9367922336676138	0.1934014826770174	-0.08088058858900969	0.0006506603454853195	-0.2904478064169786	0.231196795031497	0.2311967950314964	-0.1508334264214743	-0.1676317092643961	0.08936392743658232	0.2456285880819321	0.001962882958752277	0.0008219360816350054	7.111356398319109e-05	-0.002274408520237766	-0.0003929278928988745	-0.001454922562166305	-0.006183528224934202	0.001430420104475049	0.001430420104470032	0.0004759576657703807	0.001390772798714245	0.002141237603995466	0.0004804545065840727	0.02605780832054768	0.05974130522541062	0.04546733606221224	-0.1705332715395108	0.09070427597546368	-0.04727006395827816	0.05719044982453812	-27.95249141993575	-22.608881179218	-33.2350733009014	15.71172896465827	-6.477789339174813	-662.4430363067221	19.60084483797113	0.06401608106836471	0.08452675033780552	0.006145978414683585	-0.1598397145026841	-0.02999539719353159	-0.07478339743316777	-0.2025739847686955	0.01427019977309579	0.01427019977309582	0.04532937331343249	0.0647281147190252	0.1297291069882384	0.02093025730048424	5.347032910782113e-11	1.631987861344546e-10	4.638750904358891e-11	-1.282598054763361e-11	-5.081308251612471e-11	3.070981991314351e-10	1.484744039257039e-10
0.03	0.01041607185918242	0.1222320974692949	0.9367932313665142	0.1933710975270042	-0.08088595428845538	0.0006323957652641716	-0.2905202010949424	0.231212104023541	0.2312121040234834	-0.1508265287987909	-0.1676145530024666	0.0893916772290026	0.24563445331685	0.002634560348243583	0.001595725868452308	0.000126833396421467	-0.00377439333769397	-0.0006728716135089606	-0.002189441034962099	-0.008344739990445856	0.001660689177133979	0.001660689177133274	0.000889350331096752	0.002034576001973414	0.003394015111784396	0.0006952883711240487	0.0256725686360401	0.05929240466133141	0.04521391027142688	-0.1693216864225867	0.08859831559715538	-0.0470219267729606	0.05734183827632157	-27.95241468369955	-23.24524518877735	-33.09842278804722	15.52967849817375	-5.864812817843346	-662.2975954320864	19.9348020933937	0.07086094719301199	0.07025347035231569	0.005046125621321996	-0.1408436221091488	-0.02589282922545551	-0.071503204472641	-0.2302946662538906	0.03180188168408851	0.03180188168480359	0.03721171923428624	0.0633208822257421	0.1208462346350897	0.02216433603420978	3.554395026836045e-11	1.154384050062948e-10	3.565241775733353e-11	6.049713975429312e-12	-3.450731383100474e-11	2.448967221649473e-10	-2.074039368568107e-11
0.04	0.01044612874669046	0.1222513317395105	0.9367947384917321	0.1933265593775017	-0.08089389921903178	0.0006070425738595431	-0.2906156878693182	0.2312305950303966	0.2312305950303956	-0.1508159237482167	-0.1675911358168239	0.08943151362888914	0.2456425477674153	0.003390932909841697	0.002227450755400353	0.0001729988275202652	-0.005105008424815456	-0.0009087741233607135	-0.002872644798541043	-0.01080194750844827	0.00206682307667019	0.002066823076673837	0.001217443240086666	0.002642957569105635	0.004558559098012963	0.0009262976358088556	0.02528732895179971	0.05884350409725341	0.04496048447975273	-0.1681101013057187	0.08649235521888636	-0.04677378958760865	0.05749322672829409	-27.9522597610929	-23.88092837695435	-32.96164310078607	15.34759605169484	-5.258002547700088	-662.1447547727663	20.26833709564537	0.08095511548949247	0.05611377036417856	0.004235098146777944	-0.1259657684357858	-0.02118715504187291	-0.06452045558986862	-0.2617731352669667	0.04944316514849503	0.0494431651485031	0.02826942204613572	0.05764378749364094	0.1120824026764024	0.02416533732954644	1.655759018637468e-11	6.378705213056975e-11	3.134815473537241e-11	2.595759522405288e-11	-1.7485132265807e-11	1.736364826513335e-10	-1.9228874206425e-10
0.05	0.01048407199665044	0.1222763200382097	0.9367966889484128	0.193269246299436	-0.08090404877119704	0.0005750687162882361	-0.2907363318652025	0.2312535493582288	0.2312535493581894	-0.150802315574652	-0.1675617684075987	0.0894824947789587	0.2456529227279829	0.004201177589492609	0.002761160629466516	0.0002183657565638154	-0.006359815488883549	-0.001120895689284584	-0.003518560647384119	-0.01328617931641561	0.002506242087715121	0.002506242087716191	0.001505859659955055	0.003229864367453901	0.005617255509504783	0.00113979124149799	0.02429048364788078	0.05912941472603085	0.04456442824549361	-0.1662794069374539	0.08398974358711096	-0.04718098381301367	0.05822724257117737	-27.95206070931017	-24.71797542240316	-33.10244165271027	15.16146233767678	-4.622294250282819	-662.2332617222625	20.05603789609043	0.08157822516824273	0.05064233995437863	0.004878511593781456	-0.1255694121677898	-0.02118852884202454	-0.06409224444091516	-0.2356473511181621	0.03852120684192983	0.03852120684176519	0.02937799989834704	0.05911513939423457	0.09970095798069777	0.0186058937096912	3.219493384949213e-11	9.311813202761635e-11	8.764461641086958e-11	1.334576317468619e-11	-4.750766315038079e-11	8.156856476355941e-11	-5.164726469220208e-11
